<svg xmlns="http://www.w3.org/2000/svg" width="1200" height="700" viewBox="0 0 1200 700">
  <defs>
    <linearGradient id="bg" x1="0" y1="0" x2="1" y2="1">
      <stop offset="0%" stop-color="#ecfeff"/>
      <stop offset="100%" stop-color="#eff6ff"/>
    </linearGradient>
  </defs>
  <rect width="1200" height="700" fill="url(#bg)"/>
  <rect x="250" y="90" width="700" height="520" rx="18" fill="#fffdfa" stroke="#dbeafe"/>
  <text x="290" y="155" font-size="34" font-family="PingFang SC, Microsoft YaHei, sans-serif" fill="#0f172a">Private Add Demo</text>
  <text x="290" y="195" font-size="18" font-family="PingFang SC, Microsoft YaHei, sans-serif" fill="#64748b">Task3 前端演示截图（示意）</text>

  <text x="290" y="255" font-size="16" font-family="PingFang SC, Microsoft YaHei, sans-serif" fill="#334155">私有输入 a</text>
  <rect x="290" y="268" width="280" height="46" rx="8" fill="#ffffff" stroke="#cbd5e1"/>
  <text x="308" y="297" font-size="20" font-family="Menlo, Consolas, monospace" fill="#0f172a">7</text>

  <text x="620" y="255" font-size="16" font-family="PingFang SC, Microsoft YaHei, sans-serif" fill="#334155">私有输入 b</text>
  <rect x="620" y="268" width="280" height="46" rx="8" fill="#ffffff" stroke="#cbd5e1"/>
  <text x="638" y="297" font-size="20" font-family="Menlo, Consolas, monospace" fill="#0f172a">11</text>

  <rect x="290" y="340" width="170" height="44" rx="10" fill="#0f766e"/>
  <text x="322" y="368" font-size="16" font-family="PingFang SC, Microsoft YaHei, sans-serif" fill="#ffffff">执行私密加法</text>

  <rect x="478" y="340" width="120" height="44" rx="10" fill="#e2e8f0"/>
  <text x="519" y="368" font-size="16" font-family="PingFang SC, Microsoft YaHei, sans-serif" fill="#0f172a">重置</text>

  <rect x="290" y="412" width="610" height="150" rx="10" fill="#f8fafc" stroke="#94a3b8" stroke-dasharray="6 4"/>
  <text x="312" y="452" font-size="18" font-family="PingFang SC, Microsoft YaHei, sans-serif" fill="#0f172a">执行成功</text>
  <text x="312" y="486" font-size="18" font-family="Menlo, Consolas, monospace" fill="#0f172a">private_add(7, 11) = 18</text>
  <text x="312" y="520" font-size="18" font-family="Menlo, Consolas, monospace" fill="#334155">Demo TxID: demo_1748338471</text>
</svg>
